# xmcd
#
# Track frame offsets:
#	150
#	13187
#	28547
#	48942
#	68882
#	89147
#	101640
#	119942
#	136965
#	160265
#
# Disc length: 2326 seconds
#
# Revision: 12
# Processed by: cddbd v1.5.2PL0 Copyright (c) Steve Scherf et al.
# Submitted via: audiograbber 1.83.01
#
DISCID=8e09140a
DTITLE=SPICE GIRLS - TQM - Spiceworld
DYEAR=1997
DGENRE=Pop
TTITLE0=Spice Up Your Life
TTITLE1=Stop
TTITLE2=Too Much
TTITLE3=Saturday Night Divas
TTITLE4=Never Give Up On The Good Times
TTITLE5=Move Over
TTITLE6=Do It
TTITLE7=Denying
TTITLE8=Viva Forever
TTITLE9=The Lady Is A Vamp
EXTD=
EXTT0=
EXTT1=
EXTT2=
EXTT3=
EXTT4=
EXTT5=
EXTT6=
EXTT7=
EXTT8=
EXTT9=
PLAYORDER=
